<?xml version="1.0" encoding="UTF-8" standalone="no"?>
<!DOCTYPE svg PUBLIC "-//W3C//DTD SVG 1.1//EN" "http://www.w3.org/Graphics/SVG/1.1/DTD/svg11.dtd">
<svg width="100%" height="100%" viewBox="0 0 750 667" version="1.1" xmlns="http://www.w3.org/2000/svg" xmlns:xlink="http://www.w3.org/1999/xlink" xml:space="preserve" xmlns:serif="http://www.serif.com/" style="fill-rule:evenodd;clip-rule:evenodd;stroke-linejoin:round;stroke-miterlimit:1.41421;">
    <g id="bottle-B" serif:id="bottle B">
        <path d="M739.962,667L384.907,667L384.907,165.683C387.734,121.214 409.792,66.577 463.173,37.04C477.875,26.654 487.385,14.266 492.028,0L632.841,0C637.483,14.266 646.993,26.654 661.695,37.04C715.077,66.577 737.134,121.214 739.962,165.683L739.962,667Z" style="fill-opacity:0.32549;"/>
        <path d="M506.293,42.474C519.564,58.092 531.464,73.048 540.217,90.152C527.855,117.223 525.052,143.257 523.126,169.196L397.511,166.632C401.593,93.826 447.167,51.739 506.293,42.474Z" style="fill:white;"/>
        <path d="M501.952,0L501.952,11.272C517.702,22.201 533.247,18.751 548.65,5.355L547.878,0L501.952,0Z" style="fill:white;"/>
    </g>
    <g id="bottle-A" serif:id="bottle A">
        <path d="M365.033,667L9.978,667L9.978,165.683C12.806,121.214 34.863,66.577 88.245,37.04C102.947,26.654 112.457,14.266 117.099,0L257.913,0C262.555,14.266 272.065,26.654 286.767,37.04C340.149,66.577 362.206,121.214 365.033,165.683L365.033,667Z" style="fill-opacity:0.32549;"/>
        <path d="M131.365,42.474C144.636,58.092 156.535,73.048 165.288,90.152C152.927,117.223 150.123,143.257 148.198,169.196L22.583,166.632C26.665,93.826 72.239,51.739 131.365,42.474Z" style="fill:white;"/>
        <path d="M127.024,0L127.024,11.272C142.774,22.201 158.319,18.751 173.721,5.355L172.95,0L127.024,0Z" style="fill:white;"/>
    </g>
</svg>
